<svg width="22" height="24" viewBox="0 0 22 24" fill="none" xmlns="http://www.w3.org/2000/svg">
<path d="M20.4694 9.89747C19.6401 9.74741 18.7987 9.67408 17.9559 9.67841C17.4717 9.67841 16.999 9.67841 16.5263 9.77065C15.9377 8.98533 15.1866 8.33639 14.3241 7.86823C15.0649 7.05913 15.4762 6.00212 15.477 4.90508C15.477 3.72474 15.0082 2.59274 14.1735 1.75811C13.3389 0.92348 12.2069 0.45459 11.0265 0.45459C9.84621 0.45459 8.71421 0.92348 7.87958 1.75811C7.04495 2.59274 6.57606 3.72474 6.57606 4.90508C6.5769 6.00212 6.98819 7.05913 7.72904 7.86823C6.87168 8.33883 6.1217 8.98279 5.52685 9.75912C5.07719 9.67841 4.60447 9.67841 4.12022 9.67841C3.27673 9.68168 2.43533 9.76273 1.60673 9.92053C1.33813 9.96965 1.09568 10.1125 0.92255 10.3236C0.749416 10.5348 0.656833 10.8005 0.661286 11.0735V20.5856C0.661011 20.755 0.698061 20.9223 0.7698 21.0758C0.84154 21.2292 0.946207 21.365 1.07636 21.4734C1.20569 21.5824 1.35743 21.6617 1.52082 21.7055C1.68421 21.7493 1.85525 21.7567 2.0218 21.727C2.71175 21.5768 3.41433 21.4918 4.12022 21.4734C6.35364 21.4709 8.53861 22.1244 10.4039 23.3527L10.5538 23.4104C10.7068 23.4767 10.8714 23.512 11.0381 23.5141C11.1481 23.5128 11.2572 23.4933 11.3609 23.4565H11.4416L11.5915 23.3988C13.4746 22.139 15.6903 21.4687 17.9559 21.4734C18.6604 21.4766 19.3629 21.5461 20.0544 21.6809C20.2209 21.7106 20.3919 21.7032 20.5553 21.6594C20.7187 21.6156 20.8705 21.5363 20.9998 21.4272C21.13 21.3188 21.2346 21.1831 21.3064 21.0296C21.3781 20.8762 21.4151 20.7088 21.4149 20.5395V11.0274C21.4139 10.7583 21.3188 10.4981 21.1462 10.2917C20.9735 10.0854 20.7341 9.9459 20.4694 9.89747ZM11.0381 2.76054C11.5782 2.80023 12.0833 3.04279 12.4519 3.43951C12.8206 3.83624 13.0255 4.35775 13.0255 4.89932C13.0255 5.44088 12.8206 5.96239 12.4519 6.35912C12.0833 6.75585 11.5782 6.99841 11.0381 7.03809C10.498 6.99841 9.99287 6.75585 9.62423 6.35912C9.25558 5.96239 9.05068 5.44088 9.05068 4.89932C9.05068 4.35775 9.25558 3.83624 9.62423 3.43951C9.99287 3.04279 10.498 2.80023 11.0381 2.76054ZM9.8851 20.4357C8.07801 19.6004 6.11102 19.1676 4.12022 19.1674C3.73973 19.1674 3.35925 19.1674 2.96724 19.2251V11.9844C3.93408 11.8762 4.91095 11.8956 5.87274 12.042H5.99957C7.37345 12.2945 8.69002 12.7946 9.8851 13.5178V20.4357ZM11.0381 11.5232C10.5254 11.2274 9.99387 10.9655 9.44697 10.7391H9.37779C8.99731 10.5893 8.61683 10.4394 8.22482 10.3241C9.02534 9.68691 10.015 9.33403 11.0381 9.32098C12.0584 9.32745 13.0478 9.67212 13.8513 10.301C12.8726 10.6066 11.9294 11.0163 11.0381 11.5232ZM19.1089 19.2251C16.7415 18.9872 14.3534 19.3852 12.1911 20.378V13.4602C13.3883 12.7555 14.7057 12.2786 16.0766 12.0535H16.3072C17.2342 11.9092 18.176 11.8859 19.1089 11.9844V19.2251Z"/>
</svg>
