<svg width="19" height="20" viewBox="0 0 19 20" fill="none" xmlns="http://www.w3.org/2000/svg">
<path d="M12.0565 9.11972H10.2017V5.41026C10.2017 5.16431 10.104 4.92843 9.93013 4.75451C9.75621 4.5806 9.52034 4.4829 9.27438 4.4829C9.02843 4.4829 8.79255 4.5806 8.61864 4.75451C8.44472 4.92843 8.34702 5.16431 8.34702 5.41026V10.0471C8.34702 10.293 8.44472 10.5289 8.61864 10.7028C8.79255 10.8767 9.02843 10.9744 9.27438 10.9744H12.0565C12.3024 10.9744 12.5383 10.8767 12.7122 10.7028C12.8861 10.5289 12.9838 10.293 12.9838 10.0471C12.9838 9.80113 12.8861 9.56525 12.7122 9.39134C12.5383 9.21742 12.3024 9.11972 12.0565 9.11972ZM9.27438 0.773438C7.44023 0.773437 5.64726 1.31733 4.12222 2.33633C2.59718 3.35533 1.40855 4.80368 0.706651 6.49821C0.00475055 8.19275 -0.178899 10.0574 0.178927 11.8563C0.536753 13.6552 1.41998 15.3076 2.71692 16.6045C4.01387 17.9015 5.66627 18.7847 7.46518 19.1425C9.2641 19.5004 11.1287 19.3167 12.8233 18.6148C14.5178 17.9129 15.9661 16.7243 16.9851 15.1992C18.0041 13.6742 18.548 11.8812 18.548 10.0471C18.5453 7.5884 17.5674 5.2312 15.8288 3.49265C14.0903 1.75409 11.7331 0.776172 9.27438 0.773438ZM9.27438 17.466C7.80706 17.466 6.37269 17.0309 5.15265 16.2157C3.93262 15.4005 2.98172 14.2418 2.4202 12.8862C1.85868 11.5306 1.71176 10.0389 1.99802 8.59972C2.28428 7.1606 2.99086 5.83867 4.02842 4.80112C5.06597 3.76356 6.3879 3.05698 7.82702 2.77072C9.26615 2.48446 10.7578 2.63138 12.1135 3.1929C13.4691 3.75442 14.6278 4.70532 15.443 5.92535C16.2582 7.14539 16.6933 8.57976 16.6933 10.0471C16.691 12.014 15.9087 13.8997 14.5179 15.2906C13.127 16.6814 11.2413 17.4637 9.27438 17.466Z"/>
</svg>
