<svg width="28" height="29" viewBox="0 0 28 29" fill="none" xmlns="http://www.w3.org/2000/svg">
<path d="M10.3655 1.98999H4.26702C3.45831 1.98999 2.68272 2.31125 2.11088 2.88309C1.53903 3.45494 1.21777 4.23052 1.21777 5.03923V11.1377C1.21777 11.9464 1.53903 12.722 2.11088 13.2939C2.68272 13.8657 3.45831 14.187 4.26702 14.187H10.3655C11.1742 14.187 11.9498 13.8657 12.5216 13.2939C13.0935 12.722 13.4147 11.9464 13.4147 11.1377V5.03923C13.4147 4.23052 13.0935 3.45494 12.5216 2.88309C11.9498 2.31125 11.1742 1.98999 10.3655 1.98999ZM12.195 11.1377C12.195 11.6229 12.0023 12.0883 11.6592 12.4314C11.3161 12.7745 10.8507 12.9673 10.3655 12.9673H4.26702C3.78179 12.9673 3.31644 12.7745 2.97333 12.4314C2.63023 12.0883 2.43747 11.6229 2.43747 11.1377V5.03923C2.43747 4.55401 2.63023 4.08865 2.97333 3.74555C3.31644 3.40244 3.78179 3.20969 4.26702 3.20969H10.3655C10.8507 3.20969 11.3161 3.40244 11.6592 3.74555C12.0023 4.08865 12.195 4.55401 12.195 5.03923V11.1377Z"/>
<path d="M7.5766 10.2885C7.37657 10.2885 7.23508 10.247 7.15214 10.1641C7.07408 10.0811 7.03505 9.93722 7.03505 9.73231V5.70731C7.03505 5.5024 7.07408 5.36092 7.15214 5.28286C7.23508 5.19992 7.37901 5.15845 7.58391 5.15845C7.78882 5.15845 7.93031 5.19992 8.00837 5.28286C8.09131 5.3658 8.13278 5.51216 8.13278 5.72195V9.73963C8.13278 9.94454 8.09131 10.0885 8.00837 10.1714C7.93031 10.2495 7.78638 10.2885 7.5766 10.2885ZM6.65451 7.14899C6.51302 7.27096 6.38617 7.32951 6.27396 7.32463C6.16175 7.31975 6.04222 7.24901 5.91537 7.1124C5.77876 6.96604 5.71534 6.83187 5.7251 6.7099C5.73485 6.58305 5.82023 6.44889 5.98123 6.3074L7.07164 5.3414C7.20825 5.21943 7.33266 5.16333 7.44487 5.17308C7.56196 5.18284 7.68393 5.25846 7.81078 5.39995C7.94251 5.53655 8.00349 5.66584 7.99373 5.78781C7.98398 5.90978 7.89616 6.04395 7.73028 6.19031L6.65451 7.14899Z"/>
<path d="M10.3655 15.354H4.26702C3.45831 15.354 2.68272 15.6753 2.11088 16.2471C1.53903 16.819 1.21777 17.5945 1.21777 18.4032V24.5017C1.21777 25.3104 1.53903 26.086 2.11088 26.6579C2.68272 27.2297 3.45831 27.551 4.26702 27.551H10.3655C11.1742 27.551 11.9498 27.2297 12.5216 26.6579C13.0935 26.086 13.4147 25.3104 13.4147 24.5017V18.4032C13.4147 17.5945 13.0935 16.819 12.5216 16.2471C11.9498 15.6753 11.1742 15.354 10.3655 15.354ZM12.195 24.5017C12.195 24.987 12.0023 25.4523 11.6592 25.7954C11.3161 26.1385 10.8507 26.3313 10.3655 26.3313H4.26702C3.78179 26.3313 3.31644 26.1385 2.97333 25.7954C2.63023 25.4523 2.43747 24.987 2.43747 24.5017V18.4032C2.43747 17.918 2.63023 17.4527 2.97333 17.1096C3.31644 16.7665 3.78179 16.5737 4.26702 16.5737H10.3655C10.8507 16.5737 11.3161 16.7665 11.6592 17.1096C12.0023 17.4527 12.195 17.918 12.195 18.4032V24.5017Z"/>
<path d="M7.36854 23.711C7.10997 23.711 6.86603 23.6671 6.63672 23.5793C6.40742 23.4963 6.20495 23.3817 6.02931 23.2353C5.85368 23.0889 5.71463 22.9231 5.61218 22.7377C5.5146 22.5474 5.46337 22.3498 5.4585 22.1449C5.4585 21.8814 5.66097 21.7497 6.06591 21.7497C6.183 21.7497 6.27081 21.7619 6.32936 21.7863C6.39278 21.8058 6.44157 21.8449 6.47572 21.9034C6.50987 21.9571 6.54647 22.0351 6.5855 22.1376C6.60013 22.1864 6.63672 22.2498 6.69527 22.3279C6.75381 22.4059 6.83675 22.4767 6.94409 22.5401C7.0563 22.5986 7.20022 22.6279 7.37586 22.6279C7.54174 22.6279 7.68322 22.6035 7.80031 22.5547C7.92228 22.5011 8.01498 22.4303 8.07841 22.3425C8.14671 22.2498 8.18086 22.1473 8.18086 22.0351C8.18086 21.9083 8.14915 21.8009 8.08572 21.7131C8.0223 21.6253 7.93448 21.5594 7.82227 21.5155C7.71494 21.4716 7.58809 21.4497 7.44172 21.4497C7.34415 21.4497 7.25145 21.4424 7.16363 21.4277C7.07581 21.4131 7.00507 21.3692 6.95141 21.296C6.89774 21.2228 6.87091 21.096 6.87091 20.9154C6.87091 20.7349 6.89774 20.6105 6.95141 20.5422C7.00507 20.469 7.07581 20.4276 7.16363 20.4178C7.25145 20.4032 7.34659 20.3959 7.44904 20.3959C7.58077 20.3959 7.69054 20.3812 7.77836 20.3519C7.86618 20.3227 7.93204 20.2812 7.97595 20.2275C8.02474 20.169 8.04913 20.0982 8.04913 20.0153C8.04913 19.9129 8.0223 19.825 7.96863 19.7519C7.91984 19.6738 7.8491 19.6152 7.75641 19.5762C7.66859 19.5372 7.56369 19.5177 7.44172 19.5177C7.31 19.5177 7.20022 19.5347 7.11241 19.5689C7.02947 19.5982 6.95872 19.6421 6.90018 19.7006C6.84651 19.7592 6.79772 19.8226 6.75381 19.8909C6.67087 20.0617 6.56598 20.1641 6.43913 20.1983C6.31716 20.2324 6.16592 20.1983 5.98541 20.0958C5.81953 19.9934 5.72195 19.886 5.69268 19.7738C5.66828 19.6616 5.69268 19.5274 5.76586 19.3713C5.77562 19.3616 5.79757 19.325 5.83172 19.2615C5.86587 19.1932 5.91954 19.1152 5.99272 19.0274C6.07078 18.9347 6.1708 18.8444 6.29277 18.7566C6.41474 18.6688 6.56354 18.5956 6.73918 18.537C6.91969 18.4785 7.13436 18.4492 7.38318 18.4492C7.67103 18.4492 7.92472 18.4956 8.14427 18.5883C8.36869 18.6761 8.55653 18.7956 8.70777 18.9469C8.85901 19.0932 8.97366 19.2567 9.05172 19.4372C9.12978 19.6177 9.16881 19.8006 9.16881 19.986C9.16881 20.1617 9.1371 20.3129 9.07368 20.4398C9.01513 20.5666 8.94195 20.6715 8.85413 20.7544C8.76631 20.8325 8.68581 20.8886 8.61263 20.9228C8.68581 20.9569 8.76144 21.0081 8.8395 21.0764C8.92244 21.1447 8.99562 21.2277 9.05904 21.3253C9.12734 21.418 9.18345 21.5229 9.22736 21.6399C9.27127 21.757 9.29322 21.8839 9.29322 22.0205C9.29322 22.3425 9.21028 22.6303 9.04441 22.884C8.87853 23.1377 8.65166 23.3402 8.36381 23.4914C8.07597 23.6378 7.74421 23.711 7.36854 23.711Z"/>
<path d="M23.7293 1.98999H17.6308C16.8221 1.98999 16.0465 2.31125 15.4746 2.88309C14.9028 3.45494 14.5815 4.23052 14.5815 5.03923V11.1377C14.5815 11.9464 14.9028 12.722 15.4746 13.2939C16.0465 13.8657 16.8221 14.187 17.6308 14.187H23.7293C24.538 14.187 25.3136 13.8657 25.8854 13.2939C26.4573 12.722 26.7785 11.9464 26.7785 11.1377V5.03923C26.7785 4.23052 26.4573 3.45494 25.8854 2.88309C25.3136 2.31125 24.538 1.98999 23.7293 1.98999ZM25.5588 11.1377C25.5588 11.6229 25.3661 12.0883 25.023 12.4314C24.6798 12.7745 24.2145 12.9673 23.7293 12.9673H17.6308C17.1456 12.9673 16.6802 12.7745 16.3371 12.4314C15.994 12.0883 15.8012 11.6229 15.8012 11.1377V5.03923C15.8012 4.55401 15.994 4.08865 16.3371 3.74555C16.6802 3.40244 17.1456 3.20969 17.6308 3.20969H23.7293C24.2145 3.20969 24.6798 3.40244 25.023 3.74555C25.3661 4.08865 25.5588 4.55401 25.5588 5.03923V11.1377Z"/>
<path d="M19.3604 10.2667C19.214 10.2667 19.0847 10.2106 18.9725 10.0984C18.8652 9.98132 18.8115 9.84959 18.8115 9.70323C18.8115 9.61541 18.8188 9.53247 18.8335 9.45441C18.8481 9.37635 18.8725 9.30073 18.9067 9.22755C18.9457 9.15437 18.9969 9.0885 19.0603 9.02996C19.2311 8.85432 19.4214 8.69576 19.6312 8.55427C19.8409 8.40791 20.0483 8.2713 20.2532 8.14446C20.463 8.01273 20.6533 7.88344 20.824 7.75659C20.9997 7.62486 21.1387 7.48582 21.2412 7.33946C21.3485 7.18821 21.4022 7.02477 21.4022 6.84914C21.4022 6.75156 21.3802 6.65399 21.3363 6.55641C21.2973 6.45396 21.2241 6.37102 21.1168 6.30759C21.0094 6.23929 20.8606 6.20514 20.6703 6.20514C20.5435 6.20514 20.4313 6.22221 20.3337 6.25636C20.241 6.29052 20.1629 6.34174 20.0995 6.41005C20.041 6.47347 19.9971 6.55397 19.9678 6.65155C19.9385 6.74912 19.9239 6.86133 19.9239 6.98818C19.9239 7.08088 19.9141 7.1687 19.8946 7.25164C19.88 7.3297 19.8336 7.39312 19.7556 7.44191C19.6775 7.4907 19.5458 7.51509 19.3604 7.51509C19.1799 7.51509 19.0506 7.48826 18.9725 7.43459C18.8945 7.37605 18.8481 7.30286 18.8335 7.21505C18.8188 7.12235 18.8115 7.02965 18.8115 6.93696C18.8115 6.70277 18.853 6.47591 18.9359 6.25636C19.0189 6.03194 19.1408 5.83435 19.3018 5.66359C19.4628 5.48796 19.6556 5.34891 19.88 5.24646C20.1093 5.144 20.3703 5.09277 20.663 5.09277C21.0192 5.09277 21.3363 5.17327 21.6144 5.33427C21.8925 5.4904 22.112 5.7075 22.273 5.98559C22.4389 6.26368 22.5218 6.58324 22.5218 6.94427C22.5218 7.15894 22.4877 7.35653 22.4194 7.53705C22.3511 7.71756 22.2584 7.88344 22.1413 8.03468C22.0291 8.18105 21.9022 8.31277 21.7608 8.42986C21.6241 8.54696 21.4851 8.64941 21.3436 8.73723C21.2021 8.82505 21.0704 8.90311 20.9484 8.97141C20.8265 9.03483 20.724 9.0885 20.6411 9.13241L20.5386 9.14705H22.1559C22.2535 9.14705 22.3438 9.1568 22.4267 9.17632C22.5145 9.19583 22.5828 9.24462 22.6316 9.32268C22.6853 9.40074 22.7121 9.53247 22.7121 9.71786C22.7121 9.88862 22.6853 10.0155 22.6316 10.0984C22.5779 10.1765 22.5072 10.2228 22.4194 10.2375C22.3316 10.257 22.2389 10.2667 22.1413 10.2667H19.3604Z"/>
<path d="M23.7293 15.354H17.6308C16.8221 15.354 16.0465 15.6753 15.4746 16.2471C14.9028 16.819 14.5815 17.5945 14.5815 18.4032V24.5017C14.5815 25.3104 14.9028 26.086 15.4746 26.6579C16.0465 27.2297 16.8221 27.551 17.6308 27.551H23.7293C24.538 27.551 25.3136 27.2297 25.8854 26.6579C26.4573 26.086 26.7785 25.3104 26.7785 24.5017V18.4032C26.7785 17.5945 26.4573 16.819 25.8854 16.2471C25.3136 15.6753 24.538 15.354 23.7293 15.354ZM25.5588 24.5017C25.5588 24.987 25.3661 25.4523 25.023 25.7954C24.6798 26.1385 24.2145 26.3313 23.7293 26.3313H17.6308C17.1456 26.3313 16.6802 26.1385 16.3371 25.7954C15.994 25.4523 15.8012 24.987 15.8012 24.5017V18.4032C15.8012 17.918 15.994 17.4527 16.3371 17.1096C16.6802 16.7665 17.1456 16.5737 17.6308 16.5737H23.7293C24.2145 16.5737 24.6798 16.7665 25.023 17.1096C25.3661 17.4527 25.5588 17.918 25.5588 18.4032V24.5017Z"/>
<path d="M21.9306 23.6378C21.7501 23.6378 21.6208 23.611 21.5427 23.5573C21.4647 23.5037 21.4159 23.4329 21.3963 23.3451C21.3817 23.2573 21.3744 23.167 21.3744 23.0743V22.1376H19.4131C19.2375 22.1376 19.1106 22.1108 19.0326 22.0571C18.9545 22.0035 18.9057 21.9351 18.8862 21.8522C18.8716 21.7644 18.8643 21.6741 18.8643 21.5814C18.8643 21.5326 18.8643 21.4936 18.8643 21.4643C18.8691 21.4302 18.8765 21.3985 18.8862 21.3692L19.5229 18.9323C19.5814 18.7078 19.6595 18.5737 19.7571 18.5298C19.8595 18.481 20.0108 18.481 20.2108 18.5298C20.3669 18.5688 20.4865 18.6273 20.5694 18.7054C20.6523 18.7835 20.6792 18.881 20.6499 18.9981L20.101 21.0984H21.3744V19.0347C21.3744 18.9469 21.3842 18.864 21.4037 18.7859C21.4232 18.7078 21.472 18.6444 21.55 18.5956C21.6281 18.542 21.7598 18.5151 21.9452 18.5151C22.1208 18.5151 22.2477 18.542 22.3258 18.5956C22.4038 18.6493 22.4502 18.72 22.4648 18.8078C22.4843 18.8908 22.4941 18.981 22.4941 19.0786V23.0817C22.4941 23.1792 22.4843 23.2719 22.4648 23.3598C22.4453 23.4427 22.3965 23.511 22.3184 23.5647C22.2404 23.6135 22.1111 23.6378 21.9306 23.6378Z"/>
</svg>
