<svg width="130" height="97" viewBox="0 0 130 97" fill="none" xmlns="http://www.w3.org/2000/svg">
<path fill-rule="evenodd" clip-rule="evenodd" d="M29.2162 24.2939L84.0335 11.3931C96.1432 8.54319 108.458 15.3158 111.538 26.5204L117.115 46.8079C120.195 58.0122 112.875 69.4059 100.765 72.2558L45.9481 85.1566C33.8382 88.0065 21.524 81.2336 18.4438 70.0293L12.8665 49.7418C9.78627 38.5372 17.1063 27.1438 29.2162 24.2939ZM1.90306 52.3219C-2.71733 35.5151 8.26264 18.425 26.4275 14.1501L81.2449 1.24932C99.4097 -3.02561 117.881 7.13342 122.501 23.9402L128.079 44.2278C132.699 61.0345 121.719 78.1246 103.554 82.3996L48.7367 95.3003C30.5719 99.5753 12.1007 89.4162 7.48036 72.6095L1.90306 52.3219ZM41.7651 69.9409C38.7377 70.6534 35.6591 68.9603 34.889 66.1591L33.4947 61.0872L28.013 62.3773C24.9855 63.0898 21.907 61.3967 21.1369 58.5955C20.3668 55.7942 22.1969 52.946 25.2243 52.2335L30.7061 50.9434L29.3117 45.8715C28.5417 43.0704 30.3717 40.222 33.3992 39.5095C36.4267 38.7971 39.5052 40.4903 40.2752 43.2914L41.6695 48.3633L47.1513 47.0732C50.1787 46.3607 53.2573 48.0538 54.0273 50.855C54.7974 53.6562 52.9674 56.5045 49.9399 57.217L44.4582 58.507L45.8525 63.5789C46.6226 66.3801 44.7926 69.2284 41.7651 69.9409ZM91.0052 36.7526C94.0327 36.04 95.8627 33.1918 95.0926 30.3906C94.3225 27.5895 91.2441 25.8963 88.2165 26.6088C85.189 27.3213 83.3591 30.1696 84.1291 32.9707C84.8992 35.7719 87.9776 37.4651 91.0052 36.7526ZM100.67 50.6781C101.44 53.4794 99.61 56.3276 96.5825 57.0401C93.5549 57.7526 90.4765 56.0595 89.7064 53.2583C88.9363 50.4571 90.7663 47.6088 93.7938 46.8963C96.8214 46.1838 99.8998 47.8769 100.67 50.6781ZM97.8812 40.5344C98.6513 43.3356 101.73 45.0287 104.757 44.3162C107.785 43.6037 109.615 40.7554 108.845 37.9542C108.075 35.153 104.996 33.4599 101.969 34.1724C98.9411 34.8849 97.1111 37.7332 97.8812 40.5344ZM82.8303 49.4765C79.8028 50.189 76.7244 48.4959 75.9543 45.6947C75.1842 42.8935 77.0141 40.0452 80.0417 39.3327C83.0693 38.6202 86.1477 40.3133 86.9178 43.1145C87.6878 45.9157 85.8579 48.764 82.8303 49.4765Z" fill="#655BE1"/>
</svg>
