<svg width="56" height="70" viewBox="0 0 56 70" fill="none" xmlns="http://www.w3.org/2000/svg">
<path d="M55.5695 24.3363C55.5337 24.0209 55.4646 23.7101 55.3634 23.4092V23.1002C55.1983 22.7471 54.9781 22.4226 54.711 22.1387L34.1083 1.53599C33.8244 1.2689 33.4999 1.04868 33.1468 0.883575C33.0443 0.869017 32.9403 0.869017 32.8378 0.883575C32.489 0.683528 32.1037 0.555114 31.7047 0.505859H10.9303C8.19817 0.505859 5.57798 1.59118 3.6461 3.52306C1.71422 5.45493 0.628906 8.07512 0.628906 10.8072V58.8802C0.628906 61.6123 1.71422 64.2325 3.6461 66.1643C5.57798 68.0962 8.19817 69.1815 10.9303 69.1815H45.2681C48.0002 69.1815 50.6204 68.0962 52.5523 66.1643C54.4841 64.2325 55.5695 61.6123 55.5695 58.8802V24.5423C55.5695 24.5423 55.5695 24.5423 55.5695 24.3363ZM34.9667 12.2151L43.8602 21.1086H38.4005C37.4898 21.1086 36.6164 20.7468 35.9725 20.1028C35.3285 19.4589 34.9667 18.5855 34.9667 17.6748V12.2151ZM48.7019 58.8802C48.7019 59.7909 48.3401 60.6643 47.6962 61.3082C47.0522 61.9522 46.1788 62.314 45.2681 62.314H10.9303C10.0196 62.314 9.14617 61.9522 8.50221 61.3082C7.85825 60.6643 7.49647 59.7909 7.49647 58.8802V10.8072C7.49647 9.89651 7.85825 9.02312 8.50221 8.37916C9.14617 7.7352 10.0196 7.37343 10.9303 7.37343H28.0992V17.6748C28.0992 20.4069 29.1845 23.0271 31.1164 24.9589C33.0483 26.8908 35.6684 27.9761 38.4005 27.9761H48.7019V58.8802ZM34.9667 41.7113H31.533V38.2775C31.533 37.3668 31.1712 36.4934 30.5272 35.8494C29.8833 35.2055 29.0099 34.8437 28.0992 34.8437C27.1885 34.8437 26.3151 35.2055 25.6711 35.8494C25.0272 36.4934 24.6654 37.3668 24.6654 38.2775V41.7113H21.2316C20.3209 41.7113 19.4475 42.073 18.8036 42.717C18.1596 43.361 17.7978 44.2344 17.7978 45.1451C17.7978 46.0557 18.1596 46.9291 18.8036 47.5731C19.4475 48.2171 20.3209 48.5788 21.2316 48.5788H24.6654V52.0126C24.6654 52.9233 25.0272 53.7967 25.6711 54.4407C26.3151 55.0846 27.1885 55.4464 28.0992 55.4464C29.0099 55.4464 29.8833 55.0846 30.5272 54.4407C31.1712 53.7967 31.533 52.9233 31.533 52.0126V48.5788H34.9667C35.8774 48.5788 36.7508 48.2171 37.3948 47.5731C38.0388 46.9291 38.4005 46.0557 38.4005 45.1451C38.4005 44.2344 38.0388 43.361 37.3948 42.717C36.7508 42.073 35.8774 41.7113 34.9667 41.7113Z" />
</svg>
